HIERARCHY
ROOT Hips
{
    OFFSET 0.000000 0.000000 0.000000
    CHANNELS 6 Xposition Yposition Zposition Zrotation Xrotation Yrotation
    JOINT Spine
    {
        OFFSET -0.000000 7.236184 0.000000
        CHANNELS 3 Zrotation Xrotation Yrotation
        JOINT Spine1
        {
            OFFSET -0.000000 20.420147 0.000000
            CHANNELS 3 Zrotation Xrotation Yrotation
            JOINT Neck
            {
                OFFSET -0.000000 20.336288 1.848754
                CHANNELS 3 Zrotation Xrotation Yrotation
                JOINT Head
                {
                    OFFSET -0.000000 12.354461 -1.764923
                    CHANNELS 3 Zrotation Xrotation Yrotation
                    End Site
                    {
                        OFFSET -0.000000 22.061537 0.000000
                    }
                }
            }
            JOINT LeftShoulder
            {
                OFFSET 3.573296 18.396038 -0.314103
                CHANNELS 3 Zrotation Xrotation Yrotation
                JOINT LeftArm
                {
                    OFFSET 10.880760 0.000000 0.000000
                    CHANNELS 3 Zrotation Xrotation Yrotation
                    JOINT LeftForeArm
                    {
                        OFFSET 27.185530 0.000000 0.000000
                        CHANNELS 3 Zrotation Xrotation Yrotation
                        JOINT LeftHand
                        {
                            OFFSET 27.825975 0.000000 0.000000
                            CHANNELS 3 Zrotation Xrotation Yrotation
                            End Site
                            {
                                OFFSET 13.236923 0.000000 0.000000
                            }
                        }
                    }
                }
            }
            JOINT RightShoulder
            {
                OFFSET -3.474926 18.396038 -0.314103
                CHANNELS 3 Zrotation Xrotation Yrotation
                JOINT RightArm
                {
                    OFFSET -10.880760 0.000000 0.000000
                    CHANNELS 3 Zrotation Xrotation Yrotation
                    JOINT RightForeArm
                    {
                        OFFSET -27.185530 0.000000 0.000000
                        CHANNELS 3 Zrotation Xrotation Yrotation
                        JOINT RightHand
                        {
                            OFFSET -27.825975 0.000000 0.000000
                            CHANNELS 3 Zrotation Xrotation Yrotation
                            End Site
                            {
                                OFFSET -13.236923 0.000000 0.000000
                            }
                        }
                    }
                }
            }
        }
    }
    JOINT LeftUpLeg
    {
        OFFSET 8.824615 0.000000 0.000000
        CHANNELS 3 Zrotation Xrotation Yrotation
        JOINT LeftLeg
        {
            OFFSET -0.000000 -35.111282 0.000000
            CHANNELS 3 Zrotation Xrotation Yrotation
            JOINT LeftFoot
            {
                OFFSET -0.000000 -42.324711 0.000000
                CHANNELS 3 Zrotation Xrotation Yrotation
                JOINT LeftToeBase
                {
                    OFFSET -0.000000 -5.735999 13.236923
                    CHANNELS 3 Zrotation Xrotation Yrotation
                    End Site
                    {
                        OFFSET -0.000000 0.000000 3.529846
                    }
                }
            }
        }
    }
    JOINT RightUpLeg
    {
        OFFSET -8.824615 0.000000 0.000000
        CHANNELS 3 Zrotation Xrotation Yrotation
        JOINT RightLeg
        {
            OFFSET -0.000000 -35.111282 0.000000
            CHANNELS 3 Zrotation Xrotation Yrotation
            JOINT RightFoot
            {
                OFFSET -0.000000 -42.324711 0.000000
                CHANNELS 3 Zrotation Xrotation Yrotation
                JOINT RightToeBase
                {
                    OFFSET -0.000000 -5.735999 13.236923
                    CHANNELS 3 Zrotation Xrotation Yrotation
                    End Site
                    {
                        OFFSET -0.000000 0.000000 3.529846
                    }
                }
            }
        }
    }
}
MOTION
Frames:    5
Frame Time:    0.008333
-5.042299    84.904053    100.420830    -0.736823    -5.407299    -171.556885    -2.324347    -15.503306    -0.185221    2.110663    10.793557    -0.068241    0.257316    7.146132    -3.825312    9.549239    -7.452720    -2.032535    -0.393416    18.774977    0.801707    -46.825047    35.946205    -33.793877    5.783579    -0.952122    -20.130573    4.940410    0.004966    -1.635707    14.443375    24.526094    -9.920125    35.815922    41.135029    35.837036    -3.085549    -10.650017    10.626638    -18.840322    -9.568842    -4.886436    6.704973    -2.770051    -9.255992    -0.644283    4.225958    4.117782    -8.252197    -5.602278    -9.530929    0.116793    -0.037049    -0.129470    -6.611420    3.513472    -9.860345    1.160837    1.931467    -5.405035    4.160220    -5.325829    -10.980381    -2.304489    -0.047289    2.492590    
-5.050321    84.902695    100.421333    -0.741475    -5.419035    -171.586304    -2.293892    -15.508789    -0.213992    2.042375    10.795512    -0.094697    0.245264    7.110521    -3.808646    9.547083    -7.439908    -2.015723    -0.426138    18.796194    0.813721    -47.087234    36.119648    -33.735428    5.688745    -1.135931    -19.834141    5.538734    -0.217318    -1.580146    14.405472    24.542940    -9.917448    35.703735    41.493305    35.903091    -3.177837    -10.629866    11.196354    -18.769781    -9.572948    -4.607918    6.697513    -2.763414    -9.239082    -0.645861    4.208363    4.128650    -8.251793    -5.606493    -9.528470    0.121791    -0.034141    -0.135010    -6.627836    3.509954    -9.787122    1.170556    1.911252    -5.418313    4.155656    -5.330013    -11.008161    -2.301838    -0.039233    2.489695    
-5.058492    84.901306    100.421822    -0.746505    -5.430264    -171.615616    -2.263860    -15.513847    -0.242808    1.974340    10.797696    -0.120495    0.233843    7.074582    -3.792239    9.544072    -7.426411    -1.999447    -0.459476    18.817541    0.825515    -47.349407    36.291080    -33.676228    5.593591    -1.327472    -19.538965    6.133444    -0.445452    -1.525374    14.368037    24.559242    -9.914437    35.594250    41.844257    35.968185    -3.272674    -10.615366    11.756111    -18.705826    -9.581477    -4.327776    6.689441    -2.756460    -9.221686    -0.647081    4.191240    4.139070    -8.251679    -5.610922    -9.526209    0.126809    -0.031294    -0.140572    -6.644856    3.506538    -9.714657    1.180386    1.891880    -5.431421    4.151049    -5.334301    -11.035415    -2.299204    -0.031270    2.486820    
-5.066894    84.899864    100.422333    -0.752290    -5.440565    -171.644775    -2.235061    -15.517758    -0.270307    1.907680    10.799810    -0.145660    0.223288    7.038296    -3.776662    9.540026    -7.411274    -1.984445    -0.493509    18.839025    0.836180    -47.610458    36.458061    -33.615845    5.497396    -1.529443    -19.248213    6.716754    -0.683076    -1.471826    14.331768    24.574085    -9.911207    35.491165    42.181561    36.029789    -3.366527    -10.613230    12.295609    -18.653925    -9.601418    -4.047533    6.679945    -2.749142    -9.203056    -0.647375    4.175284    4.148974    -8.252291    -5.615688    -9.524897    0.131801    -0.028548    -0.146105    -6.662915    3.503101    -9.644391    1.190266    1.874328    -5.444064    4.146368    -5.338732    -11.061027    -2.296563    -0.023474    2.483937    
-5.075584    84.898323    100.422836    -0.759105    -5.449449    -171.673828    -2.208076    -15.519931    -0.300933    1.841953    10.801924    -0.164504    0.214719    7.001973    -3.762272    9.533647    -7.394512    -1.971462    -0.528369    18.861477    0.845178    -47.869171    36.618855    -33.554787    5.398646    -1.745740    -18.963753    7.283038    -0.933975    -1.419734    14.297713    24.587137    -9.908122    35.396450    42.501369    36.086586    -3.456346    -10.628560    12.807234    -18.618402    -9.638089    -3.769712    6.668701    -2.741212    -9.183013    -0.646590    4.161153    4.157784    -8.254151    -5.621236    -9.524134    0.136861    -0.025415    -0.151713    -6.682402    3.499888    -9.576878    1.200329    1.859167    -5.455727    4.141573    -5.343444    -11.084854    -2.294007    -0.015532    2.481145    
